<svg class="poloto" width="800" height="500" viewBox="0 0 800 500" xmlns="http://www.w3.org/2000/svg"><style>.poloto{stroke-linecap:round;stroke-linejoin:round;font-family:Roboto,sans-serif;font-size:16px;}.poloto_background{fill:AliceBlue;}.poloto_scatter{stroke-width:7}.poloto_tick_line{stroke:gray;stroke-width:0.5}.poloto_line{stroke-width:2}.poloto_text{fill: black;}.poloto_axis_lines{stroke: black;stroke-width:3;fill:none;stroke-dasharray:none}.poloto_title{font-size:24px;dominant-baseline:start;text-anchor:middle;}.poloto_xname{font-size:24px;dominant-baseline:start;text-anchor:middle;}.poloto_yname{font-size:24px;dominant-baseline:start;text-anchor:middle;}.poloto_legend_text{font-size:20px;dominant-baseline:middle;text-anchor:start;}.poloto0stroke{stroke:blue;}.poloto1stroke{stroke:red;}.poloto2stroke{stroke:green;}.poloto3stroke{stroke:gold;}.poloto4stroke{stroke:aqua;}.poloto5stroke{stroke:lime;}.poloto6stroke{stroke:orange;}.poloto7stroke{stroke:chocolate;}.poloto0fill{fill:blue;}.poloto1fill{fill:red;}.poloto2fill{fill:green;}.poloto3fill{fill:gold;}.poloto4fill{fill:aqua;}.poloto5fill{fill:lime;}.poloto6fill{fill:orange;}.poloto7fill{fill:chocolate;}</style><circle  r="1e5" class="poloto_background" /><text  class="poloto_text poloto_legend_text" x="675" y="100" >Prices ($)</text><line  class="poloto_line poloto_legend_icon poloto0stroke poloto0legend" stroke="black" x1="680" x2="730" y1="81.25" y2="81.25" /><path  class="poloto_line poloto0stroke" fill="none" stroke="black" d=" M 150.00 379.42 L 151.37 379.40 L 152.75 379.38 L 154.12 379.36 L 155.49 379.34 L 156.87 379.32 L 158.24 379.31 L 159.62 379.29 L 160.99 379.27 L 162.36 379.25 L 163.74 379.23 L 165.11 379.21 L 166.48 379.19 L 167.86 379.17 L 169.23 379.16 L 170.60 379.14 L 171.98 379.12 L 173.35 379.10 L 174.73 379.08 L 176.10 379.06 L 177.47 379.04 L 178.85 379.02 L 180.22 379.01 L 181.59 378.99 L 182.97 378.97 L 184.34 378.95 L 185.71 378.93 L 187.09 378.91 L 188.46 378.89 L 189.84 378.87 L 191.21 378.85 L 192.58 378.83 L 193.96 378.82 L 195.33 378.80 L 196.70 378.78 L 198.08 378.76 L 199.45 378.74 L 200.82 378.72 L 202.20 378.70 L 203.57 378.68 L 204.95 378.66 L 206.32 378.64 L 207.69 378.62 L 209.07 378.60 L 210.44 378.59 L 211.81 378.57 L 213.19 378.55 L 214.56 378.53 L 215.93 378.51 L 217.31 378.49 L 218.68 378.47 L 220.05 378.45 L 221.43 378.43 L 222.80 378.41 L 224.18 378.39 L 225.55 378.37 L 226.92 378.35 L 228.30 378.33 L 229.67 378.31 L 231.04 378.29 L 232.42 378.28 L 233.79 378.26 L 235.16 378.24 L 236.54 378.22 L 237.91 378.20 L 239.29 378.18 L 240.66 378.16 L 242.03 378.14 L 243.41 378.12 L 244.78 378.10 L 246.15 378.08 L 247.53 378.06 L 248.90 378.04 L 250.27 378.02 L 251.65 378.00 L 253.02 377.98 L 254.40 377.96 L 255.77 377.94 L 257.14 377.92 L 258.52 377.90 L 259.89 377.88 L 261.26 377.86 L 262.64 377.84 L 264.01 377.82 L 265.38 377.80 L 266.76 377.78 L 268.13 377.76 L 269.51 377.74 L 270.88 377.72 L 272.25 377.70 L 273.63 377.68 L 275.00 377.66 L 276.37 377.64 L 277.75 377.62 L 279.12 377.60 L 280.49 377.58 L 281.87 377.56 L 283.24 377.54 L 284.62 377.52 L 285.99 377.50 L 287.36 377.48 L 288.74 377.46 L 290.11 377.44 L 291.48 377.42 L 292.86 377.40 L 294.23 377.38 L 295.60 377.36 L 296.98 377.34 L 298.35 377.32 L 299.73 377.30 L 301.10 377.28 L 302.47 377.26 L 303.85 377.23 L 305.22 377.21 L 306.59 377.19 L 307.97 377.17 L 309.34 377.15 L 310.71 377.13 L 312.09 377.11 L 313.46 377.09 L 314.84 377.07 L 316.21 377.05 L 317.58 377.03 L 318.96 377.01 L 320.33 376.99 L 321.70 376.97 L 323.08 376.95 L 324.45 376.93 L 325.82 376.90 L 327.20 376.88 L 328.57 376.86 L 329.95 376.84 L 331.32 376.82 L 332.69 376.80 L 334.07 376.78 L 335.44 376.76 L 336.81 376.74 L 338.19 376.72 L 339.56 376.70 L 340.93 376.68 L 342.31 376.65 L 343.68 376.63 L 345.05 376.61 L 346.43 376.59 L 347.80 376.57 L 349.18 376.55 L 350.55 376.53 L 351.92 376.51 L 353.30 376.49 L 354.67 376.46 L 356.04 376.44 L 357.42 376.42 L 358.79 376.40 L 360.16 376.38 L 361.54 376.36 L 362.91 376.34 L 364.29 376.32 L 365.66 376.29 L 367.03 376.27 L 368.41 376.25 L 369.78 376.23 L 371.15 376.21 L 372.53 376.19 L 373.90 376.17 L 375.27 376.14 L 376.65 376.12 L 378.02 376.10 L 379.40 376.08 L 380.77 376.06 L 382.14 376.04 L 383.52 376.02 L 384.89 375.99 L 386.26 375.97 L 387.64 375.95 L 389.01 375.93 L 390.38 375.91 L 391.76 375.89 L 393.13 375.86 L 394.51 375.84 L 395.88 375.82 L 397.25 375.80 L 398.63 375.78 L 400.00 375.76 L 401.37 375.73 L 402.75 375.71 L 404.12 375.69 L 405.49 375.67 L 406.87 375.65 L 408.24 375.62 L 409.62 375.60 L 410.99 375.58 L 412.36 375.56 L 413.74 375.54 L 415.11 375.51 L 416.48 375.49 L 417.86 375.47 L 419.23 375.45 L 420.60 375.43 L 421.98 375.40 L 423.35 375.38 L 424.73 375.36 L 426.10 375.34 L 427.47 375.31 L 428.85 375.29 L 430.22 375.27 L 431.59 375.25 L 432.97 375.23 L 434.34 375.20 L 435.71 375.18 L 437.09 375.16 L 438.46 375.14 L 439.84 375.11 L 441.21 375.09 L 442.58 375.07 L 443.96 375.05 L 445.33 375.02 L 446.70 375.00 L 448.08 374.98 L 449.45 374.96 L 450.82 374.93 L 452.20 374.91 L 453.57 374.89 L 454.95 374.87 L 456.32 374.84 L 457.69 374.82 L 459.07 374.80 L 460.44 374.78 L 461.81 374.75 L 463.19 374.73 L 464.56 374.71 L 465.93 374.69 L 467.31 374.66 L 468.68 374.64 L 470.05 374.62 L 471.43 374.59 L 472.80 374.57 L 474.18 374.55 L 475.55 374.53 L 476.92 374.50 L 478.30 374.48 L 479.67 374.46 L 481.04 374.43 L 482.42 374.41 L 483.79 374.39 L 485.16 374.36 L 486.54 374.34 L 487.91 374.32 L 489.29 374.30 L 490.66 374.27 L 492.03 374.25 L 493.41 374.23 L 494.78 374.20 L 496.15 374.18 L 497.53 374.16 L 498.90 374.13 L 500.27 374.11 L 501.65 374.09 L 503.02 374.06 L 504.40 374.04 L 505.77 374.02 L 507.14 373.99 L 508.52 373.97 L 509.89 373.95 L 511.26 373.92 L 512.64 373.90 L 514.01 373.88 L 515.38 373.85 L 516.76 373.83 L 518.13 373.80 L 519.51 373.78 L 520.88 373.76 L 522.25 373.73 L 523.63 373.71 L 525.00 373.69 L 526.37 373.66 L 527.75 373.64 L 529.12 373.62 L 530.49 373.59 L 531.87 373.57 L 533.24 373.54 L 534.62 373.52 L 535.99 373.50 L 537.36 373.47 L 538.74 373.45 L 540.11 373.43 L 541.48 373.40 L 542.86 373.38 L 544.23 373.35 L 545.60 373.33 L 546.98 373.31 L 548.35 373.28 L 549.73 373.26 L 551.10 373.23 L 552.47 373.21 L 553.85 373.19 L 555.22 373.16 L 556.59 373.14 L 557.97 373.11 L 559.34 373.09 L 560.71 373.06 L 562.09 373.04 L 563.46 373.02 L 564.84 372.99 L 566.21 372.97 L 567.58 372.94 L 568.96 372.92 L 570.33 372.89 L 571.70 372.87 L 573.08 372.85 L 574.45 372.82 L 575.82 372.80 L 577.20 372.77 L 578.57 372.75 L 579.95 372.72 L 581.32 372.70 L 582.69 372.67 L 584.07 372.65 L 585.44 372.62 L 586.81 372.60 L 588.19 372.58 L 589.56 372.55 L 590.93 372.53 L 592.31 372.50 L 593.68 372.48 L 595.05 372.45 L 596.43 372.43 L 597.80 372.40 L 599.18 372.38 L 600.55 372.35 L 601.92 372.33 L 603.30 372.30 L 604.67 372.28 L 606.04 372.25 L 607.42 372.23 L 608.79 372.20 L 610.16 372.18 L 611.54 372.15 L 612.91 372.13 L 614.29 372.10 L 615.66 372.08 L 617.03 372.05 L 618.41 372.03 L 619.78 372.00 L 621.15 371.98 L 622.53 371.95 L 623.90 371.93 L 625.27 371.90 L 626.65 371.88 L 628.02 371.85 L 629.40 371.82 L 630.77 371.80 L 632.14 371.77 L 633.52 371.75 L 634.89 371.72 L 636.26 371.70 L 637.64 371.67 L 639.01 371.65 L 640.38 371.62 L 641.76 371.60 L 643.13 371.57 L 644.51 371.54 L 645.88 371.52 L 647.25 371.49 L 648.63 371.47 L 650.00 371.44" /><text  class="poloto_text poloto_legend_text" x="675" y="150" >ADAs (₳)</text><line  class="poloto_line poloto_legend_icon poloto1stroke poloto1legend" stroke="black" x1="680" x2="730" y1="131.25" y2="131.25" /><path  class="poloto_line poloto1stroke" fill="none" stroke="black" d=" M 150.00 194.17 L 151.37 194.17 L 152.75 194.17 L 154.12 194.17 L 155.49 194.17 L 156.87 194.03 L 158.24 194.03 L 159.62 194.03 L 160.99 194.03 L 162.36 194.03 L 163.74 193.89 L 165.11 193.89 L 166.48 193.89 L 167.86 193.89 L 169.23 193.89 L 170.60 193.74 L 171.98 193.74 L 173.35 193.74 L 174.73 193.74 L 176.10 193.74 L 177.47 193.60 L 178.85 193.60 L 180.22 193.60 L 181.59 193.60 L 182.97 193.60 L 184.34 193.46 L 185.71 193.46 L 187.09 193.46 L 188.46 193.46 L 189.84 193.46 L 191.21 193.32 L 192.58 193.32 L 193.96 193.32 L 195.33 193.32 L 196.70 193.32 L 198.08 193.18 L 199.45 193.18 L 200.82 193.18 L 202.20 193.18 L 203.57 193.18 L 204.95 193.04 L 206.32 193.04 L 207.69 193.04 L 209.07 193.04 L 210.44 193.04 L 211.81 192.90 L 213.19 192.90 L 214.56 192.90 L 215.93 192.90 L 217.31 192.90 L 218.68 192.75 L 220.05 192.75 L 221.43 192.75 L 222.80 192.75 L 224.18 192.75 L 225.55 192.61 L 226.92 192.61 L 228.30 192.61 L 229.67 192.61 L 231.04 192.61 L 232.42 192.47 L 233.79 192.47 L 235.16 192.47 L 236.54 192.47 L 237.91 192.47 L 239.29 192.33 L 240.66 192.33 L 242.03 192.33 L 243.41 192.33 L 244.78 192.33 L 246.15 192.19 L 247.53 192.19 L 248.90 192.19 L 250.27 192.19 L 251.65 192.19 L 253.02 192.04 L 254.40 192.04 L 255.77 192.04 L 257.14 192.04 L 258.52 192.04 L 259.89 191.90 L 261.26 191.90 L 262.64 191.90 L 264.01 191.90 L 265.38 191.90 L 266.76 191.76 L 268.13 191.76 L 269.51 191.76 L 270.88 191.76 L 272.25 191.76 L 273.63 191.62 L 275.00 191.62 L 276.37 191.62 L 277.75 191.62 L 279.12 191.62 L 280.49 191.47 L 281.87 191.47 L 283.24 191.47 L 284.62 191.47 L 285.99 191.47 L 287.36 191.33 L 288.74 191.33 L 290.11 191.33 L 291.48 191.33 L 292.86 191.33 L 294.23 191.19 L 295.60 191.19 L 296.98 191.19 L 298.35 191.19 L 299.73 191.19 L 301.10 191.05 L 302.47 191.05 L 303.85 191.05 L 305.22 191.05 L 306.59 191.05 L 307.97 190.90 L 309.34 190.90 L 310.71 190.90 L 312.09 190.90 L 313.46 190.90 L 314.84 190.76 L 316.21 190.76 L 317.58 190.76 L 318.96 190.76 L 320.33 190.76 L 321.70 190.62 L 323.08 190.62 L 324.45 190.62 L 325.82 190.62 L 327.20 190.62 L 328.57 190.47 L 329.95 190.47 L 331.32 190.47 L 332.69 190.47 L 334.07 190.47 L 335.44 190.33 L 336.81 190.33 L 338.19 190.33 L 339.56 190.33 L 340.93 190.33 L 342.31 190.19 L 343.68 190.19 L 345.05 190.19 L 346.43 190.19 L 347.80 190.19 L 349.18 190.04 L 350.55 190.04 L 351.92 190.04 L 353.30 190.04 L 354.67 190.04 L 356.04 189.90 L 357.42 189.90 L 358.79 189.90 L 360.16 189.90 L 361.54 189.90 L 362.91 189.75 L 364.29 189.75 L 365.66 189.75 L 367.03 189.75 L 368.41 189.75 L 369.78 189.61 L 371.15 189.61 L 372.53 189.61 L 373.90 189.61 L 375.27 189.61 L 376.65 189.47 L 378.02 189.47 L 379.40 189.47 L 380.77 189.47 L 382.14 189.47 L 383.52 189.32 L 384.89 189.32 L 386.26 189.32 L 387.64 189.32 L 389.01 189.32 L 390.38 189.18 L 391.76 189.18 L 393.13 189.18 L 394.51 189.18 L 395.88 189.18 L 397.25 189.03 L 398.63 189.03 L 400.00 189.03 L 401.37 189.03 L 402.75 189.03 L 404.12 188.89 L 405.49 188.89 L 406.87 188.89 L 408.24 188.89 L 409.62 188.89 L 410.99 188.74 L 412.36 188.74 L 413.74 188.74 L 415.11 188.74 L 416.48 188.74 L 417.86 188.60 L 419.23 188.60 L 420.60 188.60 L 421.98 188.60 L 423.35 188.60 L 424.73 188.46 L 426.10 188.46 L 427.47 188.46 L 428.85 188.46 L 430.22 188.46 L 431.59 188.31 L 432.97 188.31 L 434.34 188.31 L 435.71 188.31 L 437.09 188.31 L 438.46 188.17 L 439.84 188.17 L 441.21 188.17 L 442.58 188.17 L 443.96 188.17 L 445.33 188.02 L 446.70 188.02 L 448.08 188.02 L 449.45 188.02 L 450.82 188.02 L 452.20 187.88 L 453.57 187.88 L 454.95 187.88 L 456.32 187.88 L 457.69 187.88 L 459.07 187.73 L 460.44 187.73 L 461.81 187.73 L 463.19 187.73 L 464.56 187.73 L 465.93 187.59 L 467.31 187.59 L 468.68 187.59 L 470.05 187.59 L 471.43 187.59 L 472.80 187.44 L 474.18 187.44 L 475.55 187.44 L 476.92 187.44 L 478.30 187.44 L 479.67 187.29 L 481.04 187.29 L 482.42 187.29 L 483.79 187.29 L 485.16 187.29 L 486.54 187.15 L 487.91 187.15 L 489.29 187.15 L 490.66 187.15 L 492.03 187.15 L 493.41 187.00 L 494.78 187.00 L 496.15 187.00 L 497.53 187.00 L 498.90 187.00 L 500.27 186.86 L 501.65 186.86 L 503.02 186.86 L 504.40 186.86 L 505.77 186.86 L 507.14 186.71 L 508.52 186.71 L 509.89 186.71 L 511.26 186.71 L 512.64 186.71 L 514.01 186.57 L 515.38 186.57 L 516.76 186.57 L 518.13 186.57 L 519.51 186.57 L 520.88 186.42 L 522.25 186.42 L 523.63 186.42 L 525.00 186.42 L 526.37 186.42 L 527.75 186.27 L 529.12 186.27 L 530.49 186.27 L 531.87 186.27 L 533.24 186.27 L 534.62 186.13 L 535.99 186.13 L 537.36 186.13 L 538.74 186.13 L 540.11 186.13 L 541.48 185.98 L 542.86 185.98 L 544.23 185.98 L 545.60 185.98 L 546.98 185.98 L 548.35 185.83 L 549.73 185.83 L 551.10 185.83 L 552.47 185.83 L 553.85 185.83 L 555.22 185.69 L 556.59 185.69 L 557.97 185.69 L 559.34 185.69 L 560.71 185.69 L 562.09 185.54 L 563.46 185.54 L 564.84 185.54 L 566.21 185.54 L 567.58 185.54 L 568.96 185.39 L 570.33 185.39 L 571.70 185.39 L 573.08 185.39 L 574.45 185.39 L 575.82 185.25 L 577.20 185.25 L 578.57 185.25 L 579.95 185.25 L 581.32 185.25 L 582.69 185.10 L 584.07 185.10 L 585.44 185.10 L 586.81 185.10 L 588.19 185.10 L 589.56 184.95 L 590.93 184.95 L 592.31 184.95 L 593.68 184.95 L 595.05 184.95 L 596.43 184.81 L 597.80 184.81 L 599.18 184.81 L 600.55 184.81 L 601.92 184.81 L 603.30 184.66 L 604.67 184.66 L 606.04 184.66 L 607.42 184.66 L 608.79 184.66 L 610.16 184.51 L 611.54 184.51 L 612.91 184.51 L 614.29 184.51 L 615.66 184.51 L 617.03 184.36 L 618.41 184.36 L 619.78 184.36 L 621.15 184.36 L 622.53 184.36 L 623.90 184.22 L 625.27 184.22 L 626.65 184.22 L 628.02 184.22 L 629.40 184.22 L 630.77 184.07 L 632.14 184.07 L 633.52 184.07 L 634.89 184.07 L 636.26 184.07 L 637.64 183.92 L 639.01 183.92 L 640.38 183.92 L 641.76 183.92 L 643.13 183.92 L 644.51 183.77 L 645.88 183.77 L 647.25 183.77 L 648.63 183.77 L 650.00 183.77" /><text  class="poloto_text poloto_legend_text" x="675" y="200" >Total ($)</text><line  class="poloto_line poloto_legend_icon poloto2stroke poloto2legend" stroke="black" x1="680" x2="730" y1="181.25" y2="181.25" /><path  class="poloto_line poloto2stroke" fill="none" stroke="black" d=" M 150.00 194.17 L 151.37 193.98 L 152.75 193.80 L 154.12 193.61 L 155.49 193.42 L 156.87 193.10 L 158.24 192.91 L 159.62 192.72 L 160.99 192.54 L 162.36 192.35 L 163.74 192.02 L 165.11 191.84 L 166.48 191.65 L 167.86 191.46 L 169.23 191.27 L 170.60 190.94 L 171.98 190.75 L 173.35 190.57 L 174.73 190.38 L 176.10 190.19 L 177.47 189.86 L 178.85 189.67 L 180.22 189.48 L 181.59 189.29 L 182.97 189.10 L 184.34 188.76 L 185.71 188.57 L 187.09 188.38 L 188.46 188.19 L 189.84 188.00 L 191.21 187.67 L 192.58 187.48 L 193.96 187.28 L 195.33 187.09 L 196.70 186.90 L 198.08 186.56 L 199.45 186.37 L 200.82 186.18 L 202.20 185.99 L 203.57 185.79 L 204.95 185.45 L 206.32 185.26 L 207.69 185.07 L 209.07 184.87 L 210.44 184.68 L 211.81 184.34 L 213.19 184.15 L 214.56 183.95 L 215.93 183.76 L 217.31 183.56 L 218.68 183.22 L 220.05 183.02 L 221.43 182.83 L 222.80 182.63 L 224.18 182.44 L 225.55 182.09 L 226.92 181.90 L 228.30 181.70 L 229.67 181.50 L 231.04 181.31 L 232.42 180.96 L 233.79 180.76 L 235.16 180.57 L 236.54 180.37 L 237.91 180.17 L 239.29 179.82 L 240.66 179.62 L 242.03 179.43 L 243.41 179.23 L 244.78 179.03 L 246.15 178.68 L 247.53 178.48 L 248.90 178.28 L 250.27 178.08 L 251.65 177.88 L 253.02 177.53 L 254.40 177.33 L 255.77 177.13 L 257.14 176.93 L 258.52 176.73 L 259.89 176.37 L 261.26 176.17 L 262.64 175.97 L 264.01 175.77 L 265.38 175.57 L 266.76 175.21 L 268.13 175.01 L 269.51 174.81 L 270.88 174.60 L 272.25 174.40 L 273.63 174.04 L 275.00 173.84 L 276.37 173.64 L 277.75 173.43 L 279.12 173.23 L 280.49 172.87 L 281.87 172.66 L 283.24 172.46 L 284.62 172.26 L 285.99 172.05 L 287.36 171.69 L 288.74 171.48 L 290.11 171.28 L 291.48 171.07 L 292.86 170.87 L 294.23 170.50 L 295.60 170.30 L 296.98 170.09 L 298.35 169.88 L 299.73 169.68 L 301.10 169.31 L 302.47 169.10 L 303.85 168.89 L 305.22 168.69 L 306.59 168.48 L 307.97 168.11 L 309.34 167.90 L 310.71 167.69 L 312.09 167.48 L 313.46 167.28 L 314.84 166.91 L 316.21 166.70 L 317.58 166.49 L 318.96 166.28 L 320.33 166.07 L 321.70 165.70 L 323.08 165.48 L 324.45 165.27 L 325.82 165.06 L 327.20 164.85 L 328.57 164.48 L 329.95 164.27 L 331.32 164.05 L 332.69 163.84 L 334.07 163.63 L 335.44 163.25 L 336.81 163.04 L 338.19 162.83 L 339.56 162.61 L 340.93 162.40 L 342.31 162.02 L 343.68 161.81 L 345.05 161.60 L 346.43 161.38 L 347.80 161.17 L 349.18 160.79 L 350.55 160.57 L 351.92 160.36 L 353.30 160.14 L 354.67 159.93 L 356.04 159.55 L 357.42 159.33 L 358.79 159.11 L 360.16 158.90 L 361.54 158.68 L 362.91 158.30 L 364.29 158.08 L 365.66 157.86 L 367.03 157.64 L 368.41 157.42 L 369.78 157.04 L 371.15 156.82 L 372.53 156.60 L 373.90 156.38 L 375.27 156.16 L 376.65 155.78 L 378.02 155.56 L 379.40 155.34 L 380.77 155.12 L 382.14 154.90 L 383.52 154.51 L 384.89 154.29 L 386.26 154.07 L 387.64 153.85 L 389.01 153.62 L 390.38 153.23 L 391.76 153.01 L 393.13 152.79 L 394.51 152.57 L 395.88 152.34 L 397.25 151.95 L 398.63 151.73 L 400.00 151.50 L 401.37 151.28 L 402.75 151.06 L 404.12 150.66 L 405.49 150.44 L 406.87 150.21 L 408.24 149.99 L 409.62 149.76 L 410.99 149.37 L 412.36 149.14 L 413.74 148.92 L 415.11 148.69 L 416.48 148.46 L 417.86 148.06 L 419.23 147.84 L 420.60 147.61 L 421.98 147.38 L 423.35 147.16 L 424.73 146.76 L 426.10 146.53 L 427.47 146.30 L 428.85 146.07 L 430.22 145.84 L 431.59 145.44 L 432.97 145.21 L 434.34 144.98 L 435.71 144.75 L 437.09 144.52 L 438.46 144.12 L 439.84 143.89 L 441.21 143.66 L 442.58 143.43 L 443.96 143.20 L 445.33 142.79 L 446.70 142.56 L 448.08 142.32 L 449.45 142.09 L 450.82 141.86 L 452.20 141.45 L 453.57 141.22 L 454.95 140.99 L 456.32 140.75 L 457.69 140.52 L 459.07 140.11 L 460.44 139.87 L 461.81 139.64 L 463.19 139.41 L 464.56 139.17 L 465.93 138.76 L 467.31 138.52 L 468.68 138.29 L 470.05 138.05 L 471.43 137.82 L 472.80 137.40 L 474.18 137.16 L 475.55 136.93 L 476.92 136.69 L 478.30 136.45 L 479.67 136.04 L 481.04 135.80 L 482.42 135.56 L 483.79 135.32 L 485.16 135.08 L 486.54 134.66 L 487.91 134.43 L 489.29 134.19 L 490.66 133.95 L 492.03 133.71 L 493.41 133.29 L 494.78 133.05 L 496.15 132.81 L 497.53 132.57 L 498.90 132.32 L 500.27 131.90 L 501.65 131.66 L 503.02 131.42 L 504.40 131.18 L 505.77 130.93 L 507.14 130.51 L 508.52 130.27 L 509.89 130.02 L 511.26 129.78 L 512.64 129.54 L 514.01 129.11 L 515.38 128.86 L 516.76 128.62 L 518.13 128.38 L 519.51 128.13 L 520.88 127.70 L 522.25 127.45 L 523.63 127.21 L 525.00 126.96 L 526.37 126.72 L 527.75 126.29 L 529.12 126.04 L 530.49 125.79 L 531.87 125.55 L 533.24 125.30 L 534.62 124.86 L 535.99 124.62 L 537.36 124.37 L 538.74 124.12 L 540.11 123.87 L 541.48 123.43 L 542.86 123.18 L 544.23 122.94 L 545.60 122.69 L 546.98 122.44 L 548.35 122.00 L 549.73 121.75 L 551.10 121.50 L 552.47 121.25 L 553.85 120.99 L 555.22 120.55 L 556.59 120.30 L 557.97 120.05 L 559.34 119.80 L 560.71 119.54 L 562.09 119.10 L 563.46 118.85 L 564.84 118.59 L 566.21 118.34 L 567.58 118.09 L 568.96 117.64 L 570.33 117.39 L 571.70 117.13 L 573.08 116.88 L 574.45 116.62 L 575.82 116.17 L 577.20 115.92 L 578.57 115.66 L 579.95 115.41 L 581.32 115.15 L 582.69 114.70 L 584.07 114.44 L 585.44 114.19 L 586.81 113.93 L 588.19 113.67 L 589.56 113.22 L 590.93 112.96 L 592.31 112.70 L 593.68 112.44 L 595.05 112.18 L 596.43 111.73 L 597.80 111.47 L 599.18 111.21 L 600.55 110.95 L 601.92 110.69 L 603.30 110.23 L 604.67 109.97 L 606.04 109.71 L 607.42 109.45 L 608.79 109.18 L 610.16 108.72 L 611.54 108.46 L 612.91 108.20 L 614.29 107.94 L 615.66 107.67 L 617.03 107.21 L 618.41 106.95 L 619.78 106.68 L 621.15 106.42 L 622.53 106.15 L 623.90 105.69 L 625.27 105.42 L 626.65 105.16 L 628.02 104.89 L 629.40 104.63 L 630.77 104.16 L 632.14 103.89 L 633.52 103.63 L 634.89 103.36 L 636.26 103.09 L 637.64 102.62 L 639.01 102.36 L 640.38 102.09 L 641.76 101.82 L 643.13 101.55 L 644.51 101.08 L 645.88 100.81 L 647.25 100.54 L 648.63 100.27 L 650.00 100.00" /><text  class="poloto_labels poloto_text poloto_title" x="400" y="37.5" >Cardano Staking Growth</text><text  class="poloto_labels poloto_text poloto_xname" x="400" y="481.25" >Days</text><text  class="poloto_labels poloto_text poloto_yname" transform="rotate(-90,37.5,250)" x="37.5" y="250" >$ ₳</text><text  class="poloto_tick_labels poloto_text" dominant-baseline="middle" text-anchor="start" x="150" y="70" ></text><line  class="poloto_axis_lines" stroke="black" x1="150" x2="144" y1="400" y2="400" /><text  class="poloto_tick_labels poloto_text" dominant-baseline="middle" text-anchor="end" x="135" y="400" >0</text><line  class="poloto_axis_lines" stroke="black" x1="150" x2="144" y1="297.0834804855237" y2="297.0834804855237" /><text  class="poloto_tick_labels poloto_text" dominant-baseline="middle" text-anchor="end" x="135" y="297.0834804855237" >5</text><line  class="poloto_axis_lines" stroke="black" x1="150" x2="144" y1="194.1669609710474" y2="194.1669609710474" /><text  class="poloto_tick_labels poloto_text" dominant-baseline="middle" text-anchor="end" x="135" y="194.1669609710474" >10</text><text  class="poloto_tick_labels poloto_text" dominant-baseline="middle" text-anchor="start" x="440.00000000000006" y="70" ></text><line  class="poloto_axis_lines" stroke="black" x1="150" x2="150" y1="400" y2="405" /><text  class="poloto_tick_labels poloto_text" dominant-baseline="start" text-anchor="middle" x="150" y="430" >0</text><line  class="poloto_axis_lines" stroke="black" x1="218.4936648051402" x2="218.4936648051402" y1="400" y2="405" /><text  class="poloto_tick_labels poloto_text" dominant-baseline="start" text-anchor="middle" x="218.4936648051402" y="430" >50</text><line  class="poloto_axis_lines" stroke="black" x1="286.9873296102804" x2="286.9873296102804" y1="400" y2="405" /><text  class="poloto_tick_labels poloto_text" dominant-baseline="start" text-anchor="middle" x="286.9873296102804" y="430" >100</text><line  class="poloto_axis_lines" stroke="black" x1="355.4809944154207" x2="355.4809944154207" y1="400" y2="405" /><text  class="poloto_tick_labels poloto_text" dominant-baseline="start" text-anchor="middle" x="355.4809944154207" y="430" >150</text><line  class="poloto_axis_lines" stroke="black" x1="423.97465922056085" x2="423.97465922056085" y1="400" y2="405" /><text  class="poloto_tick_labels poloto_text" dominant-baseline="start" text-anchor="middle" x="423.97465922056085" y="430" >200</text><line  class="poloto_axis_lines" stroke="black" x1="492.4683240257011" x2="492.4683240257011" y1="400" y2="405" /><text  class="poloto_tick_labels poloto_text" dominant-baseline="start" text-anchor="middle" x="492.4683240257011" y="430" >250</text><line  class="poloto_axis_lines" stroke="black" x1="560.9619888308414" x2="560.9619888308414" y1="400" y2="405" /><text  class="poloto_tick_labels poloto_text" dominant-baseline="start" text-anchor="middle" x="560.9619888308414" y="430" >300</text><line  class="poloto_axis_lines" stroke="black" x1="629.4556536359815" x2="629.4556536359815" y1="400" y2="405" /><text  class="poloto_tick_labels poloto_text" dominant-baseline="start" text-anchor="middle" x="629.4556536359815" y="430" >350</text><path  stroke="black" fill="none" class="poloto_axis_lines" style="stroke-dasharray:6.849366480514021;stroke-dashoffset:-0;" d=" M 150 400 L 650 400" /><path  stroke="black" fill="none" class="poloto_axis_lines" style="stroke-dasharray:10.291651951447632;stroke-dashoffset:-0;" d=" M 150 400 L 150 100" /></svg>